<svg width="55" height="55" viewBox="0 0 55 55" fill="none" xmlns="http://www.w3.org/2000/svg">
<path d="M1.08358 35.0426C4.4448 46.2425 14.8423 54.4026 27.148 54.4026C42.1734 54.4026 54.3543 42.2346 54.3543 27.2255C54.3543 12.216 42.1734 0.0483398 27.148 0.0483398C12.7295 0.0483398 0.931787 11.2525 0 25.4199C0 29.4903 0 31.1889 1.08358 35.0426Z" fill="white"/>
<path d="M25.7299 20.6301L19.0835 30.2756C17.5167 30.2045 15.9395 30.6476 14.6302 31.5077L0.0355141 25.5056C0.0355141 25.5056 -0.302198 31.0559 1.10519 35.1924L11.4228 39.4455C11.9409 41.7583 13.529 43.787 15.8722 44.7629C19.7057 46.363 24.1259 44.5392 25.7206 40.7078C26.1357 39.7062 26.3292 38.6559 26.3011 37.6077L36.0443 30.823C41.7355 30.823 46.361 26.188 46.361 20.496C46.361 14.8036 41.7355 10.1729 36.0443 10.1729C30.5474 10.1729 25.4219 14.9675 25.7299 20.6301ZM24.1329 40.0417C22.8986 43.0021 19.4934 44.4065 16.5333 43.1744C15.1678 42.6061 14.1369 41.5649 13.5421 40.3235L16.9005 41.7139C19.0835 42.6224 21.5879 41.5882 22.4953 39.4081C23.4056 37.2257 22.373 34.7197 20.1912 33.8112L16.7195 32.3741C18.059 31.8665 19.582 31.8479 21.0049 32.4394C22.4393 33.0356 23.5524 34.1584 24.1422 35.593C24.7322 37.0278 24.7299 38.6115 24.1329 40.0417ZM36.0443 27.3759C32.2558 27.3759 29.1712 24.2898 29.1712 20.496C29.1712 16.7053 32.2558 13.6183 36.0443 13.6183C39.8354 13.6183 42.9197 16.7053 42.9197 20.496C42.9197 24.2898 39.8354 27.3759 36.0443 27.3759ZM30.8941 20.4855C30.8941 17.6318 33.207 15.317 36.0559 15.317C38.9074 15.317 41.2201 17.6318 41.2201 20.4855C41.2201 23.3397 38.9074 25.6523 36.0559 25.6523C33.207 25.6523 30.8941 23.3397 30.8941 20.4855Z" fill="#10062E"/>
</svg>
