<svg width="80" height="93" viewBox="0 0 80 93" fill="none" xmlns="http://www.w3.org/2000/svg">
<path fill-rule="evenodd" clip-rule="evenodd" d="M40.8124 0.781139L79.9871 22.4223L76.0101 23.6156L40.217 3.7303L40.8124 0.781139Z" fill="black"/>
<path fill-rule="evenodd" clip-rule="evenodd" d="M40.6137 12.0818L61.5085 23.4483L60.3926 25.9583L39.7392 14.8284L40.6137 12.0818Z" fill="black"/>
<path fill-rule="evenodd" clip-rule="evenodd" d="M42.0407 3.01723L4.0169 25.7088L2.75977 23.6023L40.7836 0.910682L42.0407 3.01723Z" fill="black"/>
<path fill-rule="evenodd" clip-rule="evenodd" d="M1.56259 67.4124L42.2054 90.4295L41.0123 92.8152L0.338553 69.5384L1.56259 67.4124Z" fill="black"/>
<path fill-rule="evenodd" clip-rule="evenodd" d="M16.9136 64.3568L41.0125 78.8955L41.4102 81.6794L15.6527 66.4611L16.9136 64.3568Z" fill="black"/>
<path fill-rule="evenodd" clip-rule="evenodd" d="M62.0043 66.7029L40.2529 79.1996L41.4102 81.6797L63.2249 68.8309L62.0043 66.7029Z" fill="black"/>
<path fill-rule="evenodd" clip-rule="evenodd" d="M57.3717 82.7445L41.0118 92.8158L39.8186 90.0313L56.1211 80.6341L57.3717 82.7445Z" fill="black"/>
<path fill-rule="evenodd" clip-rule="evenodd" d="M47.6015 75.4106L56.1829 80.7851L54.8808 82.8642L46.2994 77.4896L47.6015 75.4106Z" fill="black"/>
<path fill-rule="evenodd" clip-rule="evenodd" d="M41.807 14.468L13.2145 31.2284L11.959 29.1208L40.6139 12.0818L41.807 14.468Z" fill="black"/>
<path fill-rule="evenodd" clip-rule="evenodd" d="M5.24221 23.869L5.24221 44.1074L2.78906 44.1074L2.78906 23.869L5.24221 23.869Z" fill="black"/>
<path fill-rule="evenodd" clip-rule="evenodd" d="M14.4414 29.3884L14.4414 56.9863L11.9883 56.9863L11.9883 29.3884L14.4414 29.3884Z" fill="black"/>
<path fill-rule="evenodd" clip-rule="evenodd" d="M2.78909 55.1466L2.78908 69.2522L0.335938 69.2522L0.335938 55.1466L2.78909 55.1466Z" fill="black"/>
<path fill-rule="evenodd" clip-rule="evenodd" d="M13.8282 56.9864L0.335937 56.9864L0.335938 54.5332L13.8282 54.5332L13.8282 56.9864Z" fill="black"/>
<path fill-rule="evenodd" clip-rule="evenodd" d="M4.01566 47.1736C4.69308 47.1736 5.24223 46.6245 5.24223 45.9471C5.24223 45.2696 4.69308 44.7205 4.01566 44.7205C3.33824 44.7205 2.78908 45.2696 2.78908 45.9471C2.78908 46.6245 3.33824 47.1736 4.01566 47.1736ZM4.01566 49.6268C6.04791 49.6268 7.69538 47.9793 7.69538 45.9471C7.69538 43.9148 6.04791 42.2673 4.01566 42.2673C1.9834 42.2673 0.335938 43.9148 0.335938 45.9471C0.335938 47.9793 1.9834 49.6268 4.01566 49.6268Z" fill="black"/>
<path fill-rule="evenodd" clip-rule="evenodd" d="M14.4414 64.9593C15.1189 64.9593 15.668 64.4101 15.668 63.7327C15.668 63.0553 15.1189 62.5061 14.4414 62.5061C13.764 62.5061 13.2149 63.0553 13.2149 63.7327C13.2149 64.4101 13.764 64.9593 14.4414 64.9593ZM14.4414 67.4124C16.4737 67.4124 18.1212 65.765 18.1212 63.7327C18.1212 61.7004 16.4737 60.053 14.4414 60.053C12.4092 60.053 10.7617 61.7004 10.7617 63.7327C10.7617 65.765 12.4092 67.4124 14.4414 67.4124Z" fill="black"/>
<path fill-rule="evenodd" clip-rule="evenodd" d="M64.5137 67.7581C65.1911 67.7581 65.7403 67.2089 65.7403 66.5315C65.7403 65.8541 65.1911 65.305 64.5137 65.305C63.8363 65.305 63.2871 65.8541 63.2871 66.5315C63.2871 67.2089 63.8363 67.7581 64.5137 67.7581ZM64.5137 70.2112C66.546 70.2112 68.1934 68.5638 68.1934 66.5315C68.1934 64.4993 66.546 62.8518 64.5137 62.8518C62.4815 62.8518 60.834 64.4993 60.834 66.5315C60.834 68.5638 62.4815 70.2112 64.5137 70.2112Z" fill="black"/>
<path fill-rule="evenodd" clip-rule="evenodd" d="M63.7188 27.1924C64.3962 27.1924 64.9454 26.6433 64.9454 25.9659C64.9454 25.2884 64.3962 24.7393 63.7188 24.7393C63.0414 24.7393 62.4922 25.2884 62.4922 25.9659C62.4922 26.6433 63.0414 27.1924 63.7188 27.1924ZM63.7188 29.6456C65.751 29.6456 67.3985 27.9981 67.3985 25.9659C67.3985 23.9336 65.751 22.2861 63.7188 22.2861C61.6865 22.2861 60.0391 23.9336 60.0391 25.9659C60.0391 27.9981 61.6865 29.6456 63.7188 29.6456Z" fill="black"/>
</svg>
