<svg width="32" height="24" viewBox="0 0 32 24" fill="none" xmlns="http://www.w3.org/2000/svg">
<path d="M21.3234 16.3709C19.7119 16.2672 18.4449 14.9574 18.4449 13.3564C18.4449 13.3029 18.446 13.2495 18.4492 13.1961V13.2034C18.446 13.1531 18.4439 13.0944 18.4439 13.0347C18.4439 11.4368 19.713 10.1312 21.3148 10.0359H21.3234C22.9327 10.1218 24.204 11.4242 24.204 13.019C24.204 13.084 24.2018 13.1479 24.1976 13.2118V13.2034C24.2008 13.2558 24.2029 13.3176 24.2029 13.3794C24.2029 14.9752 22.9327 16.2798 21.3308 16.3699H21.3223L21.3234 16.3709ZM10.6947 16.3709C9.08329 16.2672 7.8163 14.9574 7.8163 13.3564C7.8163 13.3029 7.81736 13.2495 7.82056 13.1961V13.2034C7.81736 13.1531 7.81523 13.0944 7.81523 13.0347C7.81523 11.4368 9.08435 10.1312 10.6862 10.0359H10.6947C12.3041 10.1218 13.5753 11.4242 13.5753 13.019C13.5753 13.084 13.5732 13.1479 13.5689 13.2118V13.2034C13.5721 13.2537 13.5743 13.3124 13.5743 13.3721C13.5743 14.97 12.3051 16.2756 10.7033 16.3709H10.6947ZM27.0835 2.01807C25.2033 1.1463 23.0191 0.456843 20.7325 0.0576292L20.5736 0.0345776C20.5683 0.0335298 20.5619 0.0324821 20.5555 0.0324821C20.5182 0.0324821 20.4862 0.0523904 20.4691 0.081729C20.2196 0.512377 19.9487 1.0499 19.7045 1.60105L19.6586 1.71735C18.5601 1.54447 17.2931 1.44597 16.0027 1.44597C14.7122 1.44597 13.4452 1.54447 12.2092 1.73412L12.3467 1.71631C12.0588 1.05619 11.7836 0.519712 11.4797 0L11.5234 0.0806812C11.5053 0.0502948 11.4722 0.0314339 11.4349 0.0314339C11.4296 0.0314339 11.4232 0.0314343 11.4178 0.0324821C8.97237 0.454748 6.7882 1.14316 4.74694 2.08304L4.90798 2.01598C4.88985 2.02331 4.87492 2.03589 4.86532 2.0516C1.82156 6.28579 0 11.5542 0 17.2406C0 18.191 0.0511915 19.1287 0.150375 20.0529L0.140777 19.9377C0.143976 19.968 0.159973 19.9932 0.18237 20.011C2.46466 21.6885 5.11808 23.0402 7.9816 23.9277L8.1693 23.978C8.17784 23.9811 8.1885 23.9822 8.19917 23.9822C8.23329 23.9822 8.26315 23.9665 8.28129 23.9424C8.85186 23.188 9.3947 22.3329 9.86502 21.436L9.91515 21.3312C9.92155 21.3187 9.92581 21.3029 9.92581 21.2862C9.92581 21.2432 9.89808 21.2076 9.85969 21.1929H9.85862C8.88598 20.8241 8.06372 20.4312 7.28092 19.9806L7.36304 20.0246C7.33211 20.0068 7.31185 19.9743 7.31185 19.9377C7.31185 19.9052 7.32785 19.8758 7.35237 19.858C7.51981 19.7344 7.68832 19.6066 7.84829 19.4766C7.86536 19.463 7.88775 19.4546 7.91121 19.4546C7.92615 19.4546 7.94001 19.4578 7.95174 19.463H7.95067C10.3055 20.5747 13.0698 21.2244 15.9877 21.2244C18.9056 21.2244 21.6711 20.5747 24.1389 19.4148L24.0248 19.463C24.0376 19.4567 24.0515 19.4536 24.0675 19.4536C24.0909 19.4536 24.1133 19.462 24.1304 19.4756C24.2904 19.6055 24.4578 19.7354 24.6274 19.858C24.6519 19.8769 24.6679 19.9062 24.6679 19.9387C24.6679 19.9754 24.6476 20.0068 24.6188 20.0246C23.9139 20.4385 23.0916 20.8304 22.2352 21.1542L22.1232 21.1919C22.0849 21.2065 22.0571 21.2432 22.0571 21.2851C22.0571 21.3019 22.0614 21.3176 22.0689 21.3312C22.6032 22.3371 23.1449 23.19 23.7443 24L23.7016 23.9403C23.7198 23.9654 23.7507 23.9822 23.7838 23.9822C23.7944 23.9822 23.8051 23.9801 23.8147 23.978C26.8702 23.0434 29.5279 21.6917 31.8827 19.9628L31.8134 20.0121C31.8368 19.9953 31.8518 19.9691 31.855 19.9398C31.9477 19.1183 32 18.1648 32 17.1997C32 11.5259 30.1742 6.27112 27.0696 1.97092L27.1251 2.05265C27.1165 2.03589 27.1016 2.02227 27.0846 2.01493L27.0835 2.01807Z" fill="#F7FAFF"/>
</svg>
