<svg width="9" height="20" viewBox="0 0 9 20" fill="none" xmlns="http://www.w3.org/2000/svg">
<path d="M5.49189 4.76221C5.49189 4.96729 5.49189 5.63575 5.49189 6.58542H8.54282L8.21203 9.49607H5.49189C5.49189 13.9848 5.49189 20 5.49189 20H1.88134C1.88134 20 1.88134 14.0645 1.88134 9.49607H0V6.58542H1.88134C1.88134 5.43113 1.88134 4.61035 1.88134 4.38181C1.88134 3.29297 1.80469 2.77633 2.237 1.93257C2.66953 1.08885 3.88955 -0.0263736 5.99968 0.000475728C8.11033 0.0283036 9 0.245603 9 0.245603L8.54282 3.34764C8.54282 3.34764 7.19506 2.96678 6.53352 3.10252C5.87285 3.23829 5.49189 3.67383 5.49189 4.76221Z" fill="white"/>
</svg>
