<svg width="22" height="20" viewBox="0 0 22 20" fill="none" xmlns="http://www.w3.org/2000/svg">
<path fill-rule="evenodd" clip-rule="evenodd" d="M20.8991 3.11417C20.9096 3.75263 20.8266 4.5542 20.7524 5.13758C20.7235 5.36512 20.6841 5.55448 20.6418 5.71003C21.585 7.37895 22 9.38674 22 11.5789C22 14.1773 20.694 16.3168 18.6602 17.7759C16.6451 19.2216 13.9267 20 11 20C8.07333 20 5.3549 19.2216 3.33982 17.7759C1.306 16.3168 0 14.1773 0 11.5789C0 9.38674 0.415052 7.37895 1.35819 5.71002C1.31594 5.55448 1.2766 5.36511 1.24764 5.13758C1.1734 4.5542 1.09046 3.75263 1.10089 3.11417C1.11264 2.3948 1.2109 1.67547 1.31987 0.961883C1.37026 0.631873 1.45027 0.321546 1.82471 0.125441C2.20721 -0.0748854 2.61001 -0.000201236 3.00738 0.107472C4.34772 0.470662 5.60436 0.980083 6.78483 1.59249C8.02945 1.2346 9.43613 1.05263 11 1.05263C12.5639 1.05263 13.9705 1.2346 15.2152 1.59249C16.3956 0.980083 17.6523 0.470662 18.9926 0.107472C19.39 -0.000201236 19.7929 -0.0748854 20.1753 0.125441C20.5498 0.321546 20.6297 0.631873 20.6801 0.961883C20.7891 1.67547 20.8874 2.3948 20.8991 3.11417ZM19.8 11.5789C19.8 9.80295 19.3734 7.36842 17.05 7.36842C16.0026 7.36842 15.0121 7.63179 14.0221 7.89516C13.033 8.1581 12.0445 8.42105 11 8.42105C9.95555 8.42105 8.96698 8.1581 7.97789 7.89516C6.98787 7.63179 5.99738 7.36842 4.95 7.36842C2.63317 7.36842 2.2 9.81021 2.2 11.5789C2.2 13.4354 3.11019 14.98 4.65947 16.0915C6.22749 17.2164 8.45905 17.8947 11 17.8947C13.5409 17.8947 15.7725 17.2163 17.3405 16.0915C18.8899 14.98 19.8 13.4354 19.8 11.5789ZM8.8 12.1053C8.8 13.5586 8.06127 14.7368 7.15 14.7368C6.23873 14.7368 5.5 13.5586 5.5 12.1053C5.5 10.6519 6.23873 9.47368 7.15 9.47368C8.06127 9.47368 8.8 10.6519 8.8 12.1053ZM14.85 14.7368C15.7612 14.7368 16.5 13.5586 16.5 12.1053C16.5 10.6519 15.7612 9.47368 14.85 9.47368C13.9388 9.47368 13.2 10.6519 13.2 12.1053C13.2 13.5586 13.9388 14.7368 14.85 14.7368Z" fill="#F7FAFF"/>
</svg>
