<svg width="34" height="19" viewBox="0 0 34 19" fill="none" xmlns="http://www.w3.org/2000/svg">
<path d="M19.178 9.49985C19.178 14.7465 14.8849 19 9.58883 19C4.29282 19 0 14.7479 0 9.49985C0 4.25189 4.29315 0 9.58883 0C14.8846 0 19.178 4.25316 19.178 9.49985ZM29.6975 9.49985C29.6975 14.439 27.5507 18.4425 24.9028 18.4425C22.255 18.4425 20.1082 14.4377 20.1082 9.49985C20.1082 4.56201 22.255 0.557163 24.9028 0.557163C27.5507 0.557163 29.6975 4.56201 29.6975 9.49985ZM34 9.49985C34 13.925 33.2449 17.5122 32.3136 17.5122C31.3825 17.5122 30.6274 13.9238 30.6274 9.49985C30.6274 5.07591 31.3825 1.48756 32.3141 1.48756C33.2455 1.48756 34 5.07495 34 9.49985Z" fill="#F7FAFF"/>
</svg>
