<svg width="25" height="22" viewBox="0 0 25 22" fill="none" xmlns="http://www.w3.org/2000/svg">
    <path d="M22.8686 0.194222C22.8686 0.194222 25.1813 -0.758063 24.9886 1.55463C24.9244 2.50693 24.3462 5.83993 23.8965 9.44503L22.3547 20.1243C22.3547 20.1243 22.2263 21.6887 21.0699 21.9608C19.9135 22.2329 18.1791 21.0085 17.8578 20.7364C17.6008 20.5324 13.0398 17.4714 11.4337 15.975C10.984 15.5669 10.4701 14.7506 11.4979 13.7983L18.2433 6.99631C19.0142 6.18005 19.7851 4.27548 16.573 6.58818L7.57923 13.0501C7.57923 13.0501 6.55137 13.7303 4.62417 13.1182L0.448465 11.7577C0.448465 11.7577 -1.09333 10.7374 1.54057 9.71708C7.96471 6.5201 15.8664 3.25512 22.8686 0.194222Z"
          fill="#F7FAFF"/>
</svg>
