<svg width="26" height="20" viewBox="0 0 26 20" fill="none" xmlns="http://www.w3.org/2000/svg">
<path fill-rule="evenodd" clip-rule="evenodd" d="M8.177 20C17.9881 20 23.3545 12.3044 23.3545 5.63153C23.3545 5.41246 23.3545 5.19505 23.3389 4.97845C24.3828 4.26464 25.2837 3.37836 26 2.36428C25.0276 2.77287 23.9941 3.04082 22.9372 3.15896C24.05 2.52762 24.8833 1.53574 25.2824 0.365349C24.2346 0.953619 23.0893 1.3688 21.8946 1.59156C19.8744 -0.441553 16.4957 -0.540058 14.3468 1.37244C12.9623 2.60559 12.3734 4.44421 12.8037 6.19794C8.515 5.99365 4.5188 4.07626 1.8096 0.921997C0.3939 3.22954 1.118 6.18044 3.4619 7.6622C2.613 7.63881 1.7823 7.42244 1.04 7.03108V7.09517C1.0413 9.49873 2.8314 11.5683 5.3196 12.0446C4.5344 12.2476 3.7102 12.2771 2.912 12.1306C3.6101 14.1884 5.6134 15.5978 7.8949 15.6384C6.006 17.0438 3.6725 17.807 1.2701 17.8045C0.8463 17.8033 0.4225 17.7799 0 17.7319C2.4401 19.2137 5.278 20 8.177 19.9963" fill="#F7FAFF"/>
</svg>
