<svg width="84" height="55" viewBox="0 0 84 55" fill="none" xmlns="http://www.w3.org/2000/svg">
<path d="M23.5107 48.6697C21.3987 48.6697 21.6087 54.3971 21.6087 54.3971C21.6087 54.3971 24.3478 55 25.6226 54.6986C25.6226 54.6986 25.6226 48.6697 23.5107 48.6697Z" fill="url(#paint0_linear_960_362)"/>
<path d="M12.5964 46.2618C10.9262 46.0917 10.9565 51.9102 10.9565 51.9102C10.9565 51.9102 12.9838 52.8336 14 52.8899C14 52.8899 14.2666 46.4318 12.5964 46.2618Z" fill="url(#paint1_linear_960_362)"/>
<path d="M10.848 4.69165C6.07023 7.67844 2.30527 12.9419 2.44111 16.9293C2.57695 20.9166 2.85129 23.3016 8.52174 26.3629C14.1922 29.4241 29.7263 31.8919 29.7263 31.8919L44.7423 24.3603C44.7423 24.3603 29.3768 22.6012 22.5845 20.9166C15.7923 19.2321 15.2596 15.8418 16.4416 13.004C21.8611 4.31466 37.3622 6.38519 44.7104 7.36672C45.6913 7.49774 46.5269 7.60935 47.1739 7.67338C52.6676 8.21707 74.5652 13.7022 74.5652 13.7022L84 8.57771C84 8.57771 64.2174 3.7546 54.4783 2.24743C44.7391 0.740252 35.9502 -0.406424 28.6087 0.137306C21.2672 0.681037 15.6259 1.70486 10.848 4.69165Z" fill="url(#paint2_linear_960_362)"/>
<path d="M67.2609 31.8919L69.3913 16.9293C69.3913 16.9293 44.7423 10.9893 38.3478 10.9893C23.4348 10.4799 24.0435 15.5109 24.0435 15.5109L59.2026 21.9235L30.4348 36.9134C30.4348 36.9134 21.7609 35.7076 13.6957 33.5975C5.63043 31.4874 0 29.3773 0 29.3773L1.29149 42.4248C1.49657 39.4404 2.20398 35.3376 4.56519 36.0091C7.74517 36.9134 8.15633 47.6696 8.2095 50.436C8.3112 50.4903 8.41421 50.5443 8.51853 50.5981C8.55351 47.318 9.0043 37.8097 13.087 39.0235C17.0426 40.1995 17.5889 49.8019 17.6508 53.529C17.8545 53.5709 18.0569 53.6117 18.258 53.6513C18.2652 51.3757 18.568 41.1336 23.4347 41.1336C28.3994 41.1336 28.8649 52.7835 28.9085 54.9552C29.8838 55 30.4348 55 30.4348 55L67.2609 31.8919Z" fill="url(#paint3_linear_960_362)"/>
<path d="M4.09168 41.4378C2.77228 41.3018 3.07295 46.2578 3.07295 46.2578C3.07295 46.2578 4.57626 48.3682 5.47826 48.6697C5.47826 48.6697 5.41108 41.5738 4.09168 41.4378Z" fill="url(#paint4_linear_960_362)"/>
<defs>
<linearGradient id="paint0_linear_960_362" x1="28" y1="-0.767004" x2="34.5494" y2="47.4838" gradientUnits="userSpaceOnUse">
<stop offset="0.182292" stop-color="#4DA9FF"/>
<stop offset="0.59375" stop-color="#CE41FF"/>
<stop offset="1" stop-color="#F1DD24"/>
</linearGradient>
<linearGradient id="paint1_linear_960_362" x1="28" y1="-0.767004" x2="34.5494" y2="47.4838" gradientUnits="userSpaceOnUse">
<stop offset="0.182292" stop-color="#4DA9FF"/>
<stop offset="0.59375" stop-color="#CE41FF"/>
<stop offset="1" stop-color="#F1DD24"/>
</linearGradient>
<linearGradient id="paint2_linear_960_362" x1="28" y1="-0.767004" x2="34.5494" y2="47.4838" gradientUnits="userSpaceOnUse">
<stop offset="0.182292" stop-color="#4DA9FF"/>
<stop offset="0.59375" stop-color="#CE41FF"/>
<stop offset="1" stop-color="#F1DD24"/>
</linearGradient>
<linearGradient id="paint3_linear_960_362" x1="28" y1="-0.767004" x2="34.5494" y2="47.4838" gradientUnits="userSpaceOnUse">
<stop offset="0.182292" stop-color="#4DA9FF"/>
<stop offset="0.59375" stop-color="#CE41FF"/>
<stop offset="1" stop-color="#F1DD24"/>
</linearGradient>
<linearGradient id="paint4_linear_960_362" x1="28" y1="-0.767004" x2="34.5494" y2="47.4838" gradientUnits="userSpaceOnUse">
<stop offset="0.182292" stop-color="#4DA9FF"/>
<stop offset="0.59375" stop-color="#CE41FF"/>
<stop offset="1" stop-color="#F1DD24"/>
</linearGradient>
</defs>
</svg>
