<svg width="14" height="14" viewBox="0 0 14 14" fill="none" xmlns="http://www.w3.org/2000/svg">
    <path d="M10.9501 8.26597L12.9214 6.2943C14.3595 4.85651 14.3595 2.51649 12.9214 1.0787C11.4835 -0.359566 9.14366 -0.359566 7.70573 1.0787L4.86081 3.92364C3.42272 5.36144 3.42272 7.70146 4.86081 9.13925C5.07314 9.35174 5.30554 9.53187 5.55147 9.68152L7.07449 8.15832C6.78438 8.08894 6.50921 7.94257 6.28335 7.71686C5.62971 7.06321 5.62971 5.99953 6.28335 5.34604L9.12826 2.50109C9.7819 1.84745 10.8456 1.84745 11.499 2.50109C12.1527 3.15474 12.1527 4.21827 11.499 4.87191L10.6633 5.70786C11.0077 6.51846 11.1029 7.40995 10.9501 8.26597Z"
          fill="currentColor"/>
    <path d="M3.05001 5.73415L1.07869 7.70566C-0.359562 9.14361 -0.359562 11.4835 1.07869 12.9214C2.51646 14.3595 4.85645 14.3595 6.29439 12.9214L9.13915 10.0765C10.5772 8.63852 10.5771 6.29866 9.13915 4.86086C8.92698 4.64838 8.69458 4.46824 8.44865 4.3186L6.92563 5.84179C7.21558 5.91133 7.49075 6.05739 7.71677 6.28326C8.37041 6.9369 8.37041 8.00043 7.71677 8.65408L4.8717 11.499C4.21806 12.1527 3.15454 12.1527 2.50091 11.499C1.84727 10.8454 1.84727 9.78185 2.50091 9.12821L3.33685 8.29241C2.9923 7.48181 2.8971 6.59017 3.05001 5.73415Z"
          fill="currentColor"/>
</svg>
