<svg width="24" height="28" viewBox="0 0 24 28" fill="none" xmlns="http://www.w3.org/2000/svg">
<path fill-rule="evenodd" clip-rule="evenodd" d="M5 22.171C3.835 22.583 3 23.695 3 25C3 26.656 4.344 28 6 28C7.656 28 9 26.656 9 25C9 23.695 8.165 22.583 7 22.171V20H10C10.552 20 11 19.552 11 19C11 18.448 10.552 18 10 18H7C5.895 18 5 18.895 5 20V22.171ZM6 26C5.448 26 5 25.552 5 25C5 24.448 5.448 24 6 24C6.552 24 7 24.448 7 25C7 25.552 6.552 26 6 26ZM18.514 7.143C18.198 6.952 17.802 6.952 17.486 7.143L12.486 10.143C12.184 10.323 12 10.649 12 11L12 17C12 17.351 12.184 17.677 12.486 17.857L17.486 20.857C17.802 21.048 18.198 21.048 18.514 20.857L23.514 17.857C23.816 17.677 24 17.351 24 17L24 11C24 10.649 23.816 10.323 23.514 10.143L18.514 7.143ZM5.829 15H10C10.552 15 11 14.552 11 14C11 13.448 10.552 13 10 13H5.829C5.417 11.835 4.305 11 3 11C1.344 11 0 12.344 0 14C0 15.656 1.344 17 3 17C4.305 17 5.417 16.165 5.829 15ZM3 13C3.552 13 4 13.448 4 14C4 14.552 3.552 15 3 15C2.448 15 2 14.552 2 14C2 13.448 2.448 13 3 13ZM5 5.829V8C5 9.105 5.895 10 7 10H10C10.552 10 11 9.552 11 9C11 8.448 10.552 8 10 8H7V5.829C8.165 5.417 9 4.305 9 3C9 1.344 7.656 0 6 0C4.344 0 3 1.344 3 3C3 4.305 3.835 5.417 5 5.829ZM6 2C6.552 2 7 2.448 7 3C7 3.552 6.552 4 6 4C5.448 4 5 3.552 5 3C5 2.448 5.448 2 6 2Z" fill="url(#paint0_linear_839_262)"/>
<defs>
<linearGradient id="paint0_linear_839_262" x1="13.9217" y1="9.63648" x2="9.35903" y2="15.6058" gradientUnits="userSpaceOnUse">
<stop stop-color="#CE41FF"/>
<stop offset="0.505208" stop-color="#4DA9FF"/>
<stop offset="1" stop-color="#24F1CC"/>
</linearGradient>
</defs>
</svg>
