<svg width="13" height="14" viewBox="0 0 13 14" fill="none" xmlns="http://www.w3.org/2000/svg">
    <path d="M13 1.25664V10.5895C12.9965 11.2821 12.4164 11.8421 11.7004 11.8461H11.1432V4.12797C11.1391 2.84104 10.0603 1.79906 8.72864 1.7951H2.97106V1.25664C2.97524 0.564048 3.55468 0.00404923 4.27134 0H11.7004C12.4164 0.00403854 12.9965 0.564031 13 1.25664ZM8.72866 2.87202H1.29959C0.583639 2.87539 0.00349452 3.43605 0 4.12799V12.7434C0.00348222 13.436 0.583621 13.996 1.29959 14H8.72866C9.4453 13.996 10.0248 13.436 10.0289 12.7434V4.12799C10.0248 3.43607 9.44532 2.8754 8.72866 2.87202Z"
          fill="currentColor"/>
</svg>
