<svg width="18" height="11" viewBox="0 0 18 11" fill="none" xmlns="http://www.w3.org/2000/svg">
    <path d="M3.71452 0.821933C2.83561 1.34519 2.14303 2.2673 2.16802 2.96585C2.19301 3.6644 2.24347 4.08223 3.28658 4.61853C4.32969 5.15483 7.18728 5.58717 7.18728 5.58717L9.94956 4.26769C9.94956 4.26769 7.12298 3.95952 5.87351 3.6644C4.62405 3.36928 4.52605 2.77534 4.74348 2.27818C5.74043 0.755889 8.59195 1.11863 9.9437 1.29058C10.1241 1.31353 10.2779 1.33309 10.3969 1.34431C11.4075 1.43955 15.4356 2.40051 15.4356 2.40051L17.1712 1.50273C17.1712 1.50273 13.5321 0.657771 11.7405 0.393728C9.94897 0.129685 8.3322 -0.0712017 6.98169 0.0240548C5.63117 0.119311 4.59343 0.298675 3.71452 0.821933Z"
          fill="currentColor"/>
    <path d="M14.092 5.58717L14.4839 2.96585C14.4839 2.96585 9.94956 1.92522 8.77326 1.92522C6.02992 1.83598 6.14189 2.71737 6.14189 2.71737L12.6096 3.8408L7.31761 6.46688C5.73678 6.2576 3.9447 5.90926 2.31874 5.14144C2.31874 5.14144 1.69228 5.7411 1.92995 6.91045C2.31228 8.79157 5.80804 9.19888 7.51322 8.97305C9.2184 8.74722 12.4759 6.53274 14.092 5.58717Z"
          fill="currentColor"/>
    <path d="M1.11486 4.06435C0.205578 5.20057 -0.195119 6.43446 0.0911547 7.59476C0.792342 10.4368 5.34939 11.7611 10.2696 10.5527C15.1898 9.34438 18.61 6.06091 17.9088 3.2189C17.8321 2.90786 17.7092 2.615 17.5446 2.34165L16.7065 2.82399C16.8304 3.02611 16.9184 3.23568 16.9711 3.44921C17.2046 4.39574 16.7879 5.59419 15.5276 6.80412C14.2881 7.99407 12.3639 9.04609 10.0388 9.61712C7.71366 10.1881 5.51983 10.1475 3.86833 9.66754C2.1891 9.17953 1.26246 8.31098 1.02893 7.36445C0.842865 6.61031 1.06954 5.69625 1.80681 4.74389C1.62988 4.65757 1.37748 4.47037 1.11486 4.06435Z"
          fill="currentColor"/>
</svg>
