<svg width="12" height="7" viewBox="0 0 12 7" fill="none" xmlns="http://www.w3.org/2000/svg">
<path d="M11.3381 0.684645C11.1428 0.48269 10.8279 0.477368 10.6264 0.672616L5.58723 5.55475C5.37617 5.75923 5.37072 6.10385 5.57521 6.31535C5.77046 6.51731 6.08541 6.52263 6.28693 6.32738L11.3261 1.44525C11.5371 1.24077 11.5426 0.896152 11.3381 0.684645Z" fill="white"/>
<path d="M0.661976 0.690015C0.859185 0.486037 1.17796 0.482864 1.37893 0.682879L6.27372 5.55448C6.48024 5.76001 6.48341 6.10085 6.28076 6.31046C6.08355 6.51443 5.76477 6.51761 5.5638 6.31759L0.669009 1.44599C0.462496 1.24046 0.459326 0.899621 0.661976 0.690015Z" fill="white"/>
<path fill-rule="evenodd" clip-rule="evenodd" d="M5.93997 4.48734L10.2763 0.286092C10.6795 -0.104509 11.3095 -0.0938607 11.7001 0.310155C12.1092 0.733282 12.0983 1.4227 11.6761 1.83178L6.63697 6.71391C6.37058 6.972 6.00513 7.05491 5.67515 6.9649C5.50521 6.92202 5.34372 6.83352 5.20877 6.69922L0.313982 1.82762C-0.0990814 1.41651 -0.105423 0.734777 0.299914 0.315526C0.694368 -0.0924682 1.33199 -0.0988146 1.73396 0.301253L5.93997 4.48734ZM5.93523 5.21759L1.37893 0.682879C1.17796 0.482864 0.859185 0.486037 0.661976 0.690015C0.459326 0.899621 0.462496 1.24046 0.669009 1.44599L5.5638 6.31759C5.56537 6.31916 5.56696 6.32071 5.56854 6.32225C5.63616 6.38788 5.71667 6.43093 5.8012 6.45147C5.96743 6.49866 6.15244 6.45769 6.28693 6.32738L11.3261 1.44525C11.5371 1.24077 11.5426 0.896152 11.3381 0.684645C11.1428 0.48269 10.8279 0.477368 10.6264 0.672616L5.93523 5.21759Z" fill="white"/>
</svg>
