<svg width="8" height="11" viewBox="0 0 8 11" fill="none" xmlns="http://www.w3.org/2000/svg">
    <path d="M6.54403 4.21127C6.21841 3.95359 5.90775 3.67756 5.65059 3.35668C4.18775 1.53178 4.94559 0 4.94559 0C2.23013 1.09167 1.61168 2.82447 1.58231 4.11491L1.58375 4.1286C1.58375 4.1286 1.60749 4.86823 1.95395 5.68124C2.0624 5.93566 1.9415 6.23329 1.66598 6.30993C1.43819 6.37325 1.20411 6.26583 1.10785 6.06569C0.952063 5.74154 0.746308 5.22605 0.805451 4.86245C0.37532 5.40848 0.0907521 6.0726 0.0177086 6.80922C-0.174539 8.74618 1.2188 10.5439 3.21038 10.9244C5.49532 11.3608 7.65607 9.85909 7.96346 7.68115C8.15584 6.31835 7.5749 5.02691 6.54403 4.21127ZM5.17889 8.36965C5.16446 8.38799 4.79465 8.82986 4.17503 8.87584C4.14146 8.87735 4.10618 8.87886 4.07261 8.87886C3.6451 8.87886 3.2113 8.68412 2.78051 8.29753L2.68609 8.2131L2.80622 8.16862C2.81421 8.16561 3.6371 7.86182 3.83892 7.20385C3.90777 6.98147 3.88535 6.72831 3.7765 6.49211C3.64523 6.20377 3.39227 5.47821 3.87263 4.95203L3.96547 4.85077L4.01032 4.97804C4.01189 4.9857 4.30171 5.79557 4.98703 6.21897C5.19357 6.34787 5.34884 6.50429 5.44654 6.6822C5.64796 7.0566 5.76651 7.65326 5.17889 8.36965Z"
          fill="currentColor"/>
</svg>
