<svg width="27" height="13" viewBox="0 0 27 13" fill="none" xmlns="http://www.w3.org/2000/svg">
<path opacity="0.4" d="M20.8967 0.458008H6.10463C4.42065 0.458008 2.8939 1.13002 1.79167 2.21678C-2.04401 5.98577 0.689675 12.458 6.10463 12.458C10.8669 12.458 10.2176 9.07955 13.4992 9.07955C16.9503 9.07955 16.2821 12.458 20.8967 12.458C22.5806 12.458 24.1045 11.786 25.2096 10.6992C29.0424 6.93024 26.3116 0.458008 20.8967 0.458008ZM18.1507 5.01696C19.7729 5.01696 19.8007 7.46289 18.1507 7.46289C17.0547 7.46289 16.4852 6.15211 17.2733 5.37719L17.2702 5.37411C17.4982 5.15319 17.809 5.01696 18.1507 5.01696ZM3.3741 6.80012C2.5305 6.80012 2.5305 5.53778 3.3741 5.53778H5.18119V3.76386C5.18119 2.9343 6.46173 2.9343 6.46173 3.76386V5.53778H8.26882C9.11242 5.53778 9.11242 6.80012 8.26882 6.80012H6.46173V8.57714C6.46173 9.40671 5.18119 9.40671 5.18119 8.57714V6.80012H3.3741ZM20.7673 7.52953C22.4019 7.52953 22.4019 9.97546 20.7673 9.97546C19.6776 9.97546 19.0956 8.66778 19.8868 7.88976V7.88668C20.1115 7.66576 20.4225 7.52953 20.7673 7.52953ZM20.7673 2.50434C22.3867 2.50434 22.4173 4.95027 20.7673 4.95027C19.6713 4.95027 19.1019 3.63949 19.8868 2.86456V2.86148C20.1115 2.64057 20.4225 2.50434 20.7673 2.50434ZM23.3808 5.01691C25.0031 5.01691 25.0308 7.46284 23.3808 7.46284C22.2848 7.46284 21.7154 6.15206 22.5035 5.37713L22.5004 5.37405C22.7281 5.15314 23.0391 5.01691 23.3808 5.01691Z" fill="white"/>
</svg>
