<svg width="7" height="13" viewBox="0 0 7 13" fill="none" xmlns="http://www.w3.org/2000/svg">
    <path d="M5.96252 1.42836C6.15318 1.61903 6.15821 1.92657 5.97387 2.12336L1.36468 7.04407C1.17163 7.25017 0.846281 7.25548 0.646598 7.0558C0.455934 6.86514 0.450909 6.5576 0.635242 6.36081L5.24443 1.44009C5.43749 1.234 5.76284 1.22868 5.96252 1.42836Z"
          fill="currentColor"/>
    <path d="M5.95745 11.8536C6.15002 11.661 6.15302 11.3497 5.96418 11.1535L1.36494 6.3737C1.17089 6.17204 0.849111 6.16895 0.651223 6.36684C0.458649 6.55941 0.455653 6.8707 0.644487 7.06694L5.24373 11.8467C5.43778 12.0484 5.75956 12.0515 5.95745 11.8536Z"
          fill="currentColor"/>
    <path fill-rule="evenodd" clip-rule="evenodd"
          d="M2.37242 6.69961L6.33879 2.46517C6.70755 2.07148 6.6975 1.45624 6.31607 1.07481C5.9166 0.675337 5.26573 0.68597 4.87952 1.09828L0.270326 6.01899C0.026665 6.27912 -0.0516078 6.63598 0.0333617 6.95821C0.0738461 7.12415 0.1574 7.28186 0.284195 7.41363L4.88344 12.1934C5.27157 12.5968 5.91519 12.6029 6.311 12.2071C6.69619 11.8219 6.70218 11.1993 6.32448 10.8068L2.37242 6.69961ZM1.68299 6.70424L5.96418 11.1535C6.15302 11.3497 6.15002 11.661 5.95745 11.8536C5.75956 12.0515 5.43778 12.0484 5.24373 11.8467L0.644487 7.06694C0.643008 7.06541 0.641541 7.06386 0.640086 7.06231C0.578124 6.99628 0.537487 6.91766 0.518092 6.83512C0.473542 6.6728 0.512224 6.49214 0.635242 6.36081L5.24443 1.44009C5.43749 1.234 5.76284 1.22868 5.96252 1.42836C6.15318 1.61903 6.15821 1.92657 5.97387 2.12336L1.68299 6.70424Z"
          fill="currentColor"/>
</svg>
