<svg width="24" height="24" viewBox="0 0 24 24" fill="none" xmlns="http://www.w3.org/2000/svg">
<path d="M12 0C5.38512 0 0 5.38512 0 12C0 18.6149 5.38512 24 12 24C18.6149 24 24 18.6149 24 12C24 5.38512 18.6149 0 12 0ZM13.4998 19.2307V20.131C13.4998 20.9559 12.8249 21.6307 12 21.6307C11.1751 21.6307 10.5002 20.9559 10.5002 20.131V19.2006C9.51023 18.8409 8.64017 18.1804 8.10018 17.2507C7.68019 16.5306 7.93508 15.6159 8.64007 15.196C9.36014 14.776 10.2748 15.0158 10.6948 15.7359C10.9647 16.2155 11.46 16.5005 11.9999 16.5005C12.8248 16.5005 13.4997 15.8257 13.4997 15.0008C13.4997 14.1759 12.8248 13.501 11.9999 13.501C9.52529 13.501 7.5 11.4757 7.5 9.00108C7.5 7.05117 8.75995 5.40146 10.5002 4.77115V3.87091C10.5002 3.04601 11.175 2.37115 11.9999 2.37115C12.8248 2.37115 13.4997 3.04601 13.4997 3.87091V4.78558C14.4897 5.1453 15.3598 5.80573 15.8997 6.7355C16.3197 7.45556 16.0648 8.37026 15.3598 8.79019C14.6398 9.21018 13.7251 8.95529 13.3052 8.2503C13.0352 7.78575 12.5399 7.50072 12 7.50072C11.1751 7.50072 10.5002 8.17559 10.5002 9.00049C10.5002 9.82539 11.1751 10.5002 12 10.5002C14.4746 10.5002 16.4999 12.5255 16.4999 15.0002C16.4999 16.9507 15.24 18.6004 13.4998 19.2307Z" fill="white"/>
</svg>
