<svg width="16" height="18" viewBox="0 0 16 18" fill="none" xmlns="http://www.w3.org/2000/svg">
    <path fill-rule="evenodd" clip-rule="evenodd"
          d="M3.33333 14.2528C2.55667 14.5176 2 15.2325 2 16.0714C2 17.136 2.896 18 4 18C5.104 18 6 17.136 6 16.0714C6 15.2325 5.44333 14.5176 4.66667 14.2528V12.8571H6.66667C7.03467 12.8571 7.33333 12.5691 7.33333 12.2143C7.33333 11.8594 7.03467 11.5714 6.66667 11.5714H4.66667C3.93 11.5714 3.33333 12.1468 3.33333 12.8571V14.2528ZM4 16.7143C3.632 16.7143 3.33333 16.4263 3.33333 16.0714C3.33333 15.7166 3.632 15.4286 4 15.4286C4.368 15.4286 4.66667 15.7166 4.66667 16.0714C4.66667 16.4263 4.368 16.7143 4 16.7143ZM12.3427 4.59193C12.132 4.46914 11.868 4.46914 11.6573 4.59193L8.324 6.5205C8.12267 6.63621 8 6.84579 8 7.07143V10.9286C8 11.1542 8.12267 11.3638 8.324 11.4795L11.6573 13.4081C11.868 13.5309 12.132 13.5309 12.3427 13.4081L15.676 11.4795C15.8773 11.3638 16 11.1542 16 10.9286V7.07143C16 6.84579 15.8773 6.63621 15.676 6.5205L12.3427 4.59193ZM3.886 9.64286H6.66667C7.03467 9.64286 7.33333 9.35486 7.33333 9C7.33333 8.64514 7.03467 8.35714 6.66667 8.35714H3.886C3.61133 7.60821 2.87 7.07143 2 7.07143C0.896 7.07143 0 7.93543 0 9C0 10.0646 0.896 10.9286 2 10.9286C2.87 10.9286 3.61133 10.3918 3.886 9.64286ZM2 8.35714C2.368 8.35714 2.66667 8.64514 2.66667 9C2.66667 9.35486 2.368 9.64286 2 9.64286C1.632 9.64286 1.33333 9.35486 1.33333 9C1.33333 8.64514 1.632 8.35714 2 8.35714ZM3.33333 3.74721V5.14286C3.33333 5.85321 3.93 6.42857 4.66667 6.42857H6.66667C7.03467 6.42857 7.33333 6.14057 7.33333 5.78571C7.33333 5.43086 7.03467 5.14286 6.66667 5.14286H4.66667V3.74721C5.44333 3.48236 6 2.7675 6 1.92857C6 0.864 5.104 0 4 0C2.896 0 2 0.864 2 1.92857C2 2.7675 2.55667 3.48236 3.33333 3.74721ZM4 1.28571C4.368 1.28571 4.66667 1.57371 4.66667 1.92857C4.66667 2.28343 4.368 2.57143 4 2.57143C3.632 2.57143 3.33333 2.28343 3.33333 1.92857C3.33333 1.57371 3.632 1.28571 4 1.28571Z"
          fill="currentColor"/>
</svg>
