<svg width="24" height="24" viewBox="0 0 24 24" fill="none" xmlns="http://www.w3.org/2000/svg">
<path d="M13.0317 6.31121C13.8768 6.46228 14.6761 6.80604 15.3682 7.31588L19.8299 2.8359C17.9196 1.1944 15.5387 0.204734 13.0317 0.00983294V6.31121Z" fill="white"/>
<path d="M16.7129 15.2806L21.1844 19.77C22.8194 17.8521 23.8051 15.4617 23.9992 12.9447H17.6656C17.5267 13.7854 17.2014 14.5836 16.7129 15.2806Z" fill="white"/>
<path d="M21.1852 4.19631L16.7136 8.68573C17.2022 9.3827 17.5275 10.1809 17.6664 11.0217H24C23.8059 8.50467 22.8203 6.11423 21.1852 4.19631Z" fill="white"/>
<path d="M11.1167 6.2966V0C6.9499 0.298262 3.23963 2.75608 1.3276 6.48458C-0.584878 10.2135 -0.42194 14.6734 1.75719 18.2523C3.9359 21.8306 7.81546 24.009 11.993 24H12.0742C14.9176 24.0025 17.6683 22.985 19.8299 21.1306L15.3682 16.6511C13.9461 17.6656 12.1414 17.9729 10.4657 17.4875C8.78971 17.0017 7.42613 15.7756 6.76136 14.1564C6.09667 12.5376 6.2031 10.7025 7.05117 9.17258C7.89923 7.64215 9.39628 6.58335 11.1167 6.2966Z" fill="white"/>
<path d="M14 12C14 13.1046 13.1046 14 12 14C10.8954 14 10 13.1046 10 12C10 10.8954 10.8954 10 12 10C13.1046 10 14 10.8954 14 12Z" fill="white"/>
</svg>
