<svg width="11" height="11" viewBox="0 0 11 11" fill="none" xmlns="http://www.w3.org/2000/svg">
    <path d="M11 9.34482C11.0014 9.64808 10.9189 9.94583 10.7617 10.2053C10.6045 10.4648 10.3786 10.6758 10.109 10.8153C9.83931 10.9548 9.53634 11.0173 9.23342 10.9959C8.9305 10.9744 8.63938 10.87 8.39212 10.6939C8.14485 10.5178 7.95104 10.2771 7.83202 9.99806C7.71299 9.71906 7.67338 9.41267 7.71755 9.11264C7.76171 8.8126 7.88793 8.53055 8.08232 8.29756C8.2767 8.06457 8.5317 7.88966 8.81924 7.79211C8.80977 7.76113 8.80332 7.72931 8.79999 7.69709V6.87323C8.79999 6.80039 8.77102 6.73054 8.71944 6.67904C8.66787 6.62754 8.59792 6.5986 8.52499 6.5986H2.475C2.40206 6.5986 2.33212 6.62754 2.28055 6.67904C2.22897 6.73054 2.2 6.80039 2.2 6.87323V7.69709C2.19666 7.72931 2.19022 7.76113 2.18075 7.79211C2.55095 7.9177 2.86446 8.17049 3.0654 8.50542C3.26635 8.84035 3.34166 9.23565 3.27793 9.62087C3.21419 10.0061 3.01555 10.3562 2.7174 10.6088C2.41925 10.8614 2.04098 11 1.65 11C1.25902 11 0.880747 10.8614 0.5826 10.6088C0.284453 10.3562 0.0858092 10.0061 0.0220743 9.62087C-0.0416606 9.23565 0.0336555 8.84035 0.234598 8.50542C0.435541 8.17049 0.749052 7.9177 1.11925 7.79211C1.10978 7.76113 1.10334 7.72931 1.1 7.69709V6.04936C1.1 5.90369 1.15795 5.76399 1.26109 5.66099C1.36424 5.55798 1.50413 5.50012 1.65 5.50012H4.94999V4.32419C4.43153 4.1905 3.97969 3.87258 3.67917 3.43001C3.37864 2.98744 3.25006 2.45061 3.31753 1.92015C3.385 1.38968 3.64389 0.901995 4.04567 0.548508C4.44745 0.195021 4.96453 0 5.49999 0C6.03546 0 6.55254 0.195021 6.95432 0.548508C7.3561 0.901995 7.61498 1.38968 7.68246 1.92015C7.74993 2.45061 7.62135 2.98744 7.32082 3.43001C7.0203 3.87258 6.56845 4.1905 6.04999 4.32419V5.50012H9.34999C9.49586 5.50012 9.63575 5.55798 9.73889 5.66099C9.84204 5.76399 9.89999 5.90369 9.89999 6.04936V7.69709C9.89665 7.72931 9.8902 7.76113 9.88074 7.79211C10.2064 7.90164 10.4895 8.11032 10.6903 8.38883C10.891 8.66733 10.9993 9.00166 11 9.34482Z"
          fill="currentColor"/>
</svg>
