<svg width="11" height="14" viewBox="0 0 11 14" fill="none" xmlns="http://www.w3.org/2000/svg">
    <path d="M3.65784 1.02067C3.02775 1.274 2.08588 1.10167 1.61081 1.562C1.13575 2.02267 1.31381 2.936 1.05256 3.547C0.80025 4.13667 0 4.65533 0 5.33333C0 6.01133 0.80025 6.53 1.05256 7.11967C1.31381 7.73067 1.13609 8.644 1.61081 9.10467C2.08588 9.56533 3.02775 9.39267 3.65784 9.646C4.26594 9.89033 4.80081 10.6667 5.5 10.6667C6.19919 10.6667 6.73406 9.89033 7.34216 9.646C7.97225 9.39267 8.91412 9.565 9.38919 9.10467C9.86425 8.644 9.68619 7.73067 9.94744 7.11967C10.1997 6.53 11 6.01133 11 5.33333C11 4.65533 10.1997 4.13667 9.94744 3.547C9.68619 2.936 9.86391 2.02267 9.38919 1.562C8.91412 1.10133 7.97225 1.274 7.34216 1.02033C6.73406 0.776 6.19919 0 5.5 0C4.80081 0 4.26594 0.776 3.65784 1.02067ZM8.9375 5.33333C8.9375 7.17433 7.39853 8.66667 5.5 8.66667C3.60147 8.66667 2.0625 7.17433 2.0625 5.33333C2.0625 3.49233 3.60147 2 5.5 2C7.39853 2 8.9375 3.49233 8.9375 5.33333Z"
          fill="currentColor"/>
    <path d="M2.72078 10.1407C2.58603 10.126 2.44234 10.1097 2.29556 10.0867C1.98034 10.876 1.53587 11.6127 0.975219 12.2653L0.34375 13L2.40625 12.3333L2.75 14L3.38594 12.7663C3.64856 12.257 3.85309 11.7213 3.99541 11.1687L4.10128 10.7577C4.04078 10.7117 3.98166 10.6657 3.92494 10.6213C3.73691 10.474 3.54234 10.3213 3.39453 10.262C3.23125 10.196 2.97172 10.1677 2.72078 10.1407Z"
          fill="currentColor"/>
    <path d="M8.27956 10.1407C8.01659 10.169 7.76909 10.1963 7.60513 10.262C7.45731 10.3213 7.26275 10.474 7.07472 10.6213C7.018 10.6657 6.95922 10.7117 6.89838 10.7577L7.00425 11.1687C7.14656 11.7213 7.35109 12.257 7.61372 12.7663L8.25 14L8.59375 12.3333L10.6562 13L10.0248 12.2653C9.46378 11.6127 9.01966 10.876 8.70444 10.0867C8.55766 10.1097 8.41431 10.126 8.27956 10.1407Z"
          fill="currentColor"/>
    <path d="M7.5625 5.33333C7.5625 6.4379 6.63909 7.33333 5.5 7.33333C4.36091 7.33333 3.4375 6.4379 3.4375 5.33333C3.4375 4.22876 4.36091 3.33333 5.5 3.33333C6.63909 3.33333 7.5625 4.22876 7.5625 5.33333Z"
          fill="currentColor"/>
</svg>
