<svg width="8" height="13" viewBox="0 0 8 13" fill="none" xmlns="http://www.w3.org/2000/svg">
    <path d="M1.14637 1.42836C0.955705 1.61903 0.950679 1.92657 1.13501 2.12336L5.7442 7.04407C5.93726 7.25017 6.26261 7.25548 6.46229 7.0558C6.65295 6.86514 6.65798 6.5576 6.47364 6.36081L1.86445 1.44009C1.6714 1.234 1.34605 1.22868 1.14637 1.42836Z"
          fill="currentColor"/>
    <path d="M1.15144 11.8536C0.958864 11.661 0.955869 11.3497 1.1447 11.1535L5.74395 6.3737C5.93799 6.17204 6.25978 6.16895 6.45766 6.36684C6.65024 6.55941 6.65323 6.8707 6.4644 7.06694L1.86515 11.8467C1.67111 12.0484 1.34933 12.0515 1.15144 11.8536Z"
          fill="currentColor"/>
    <path fill-rule="evenodd" clip-rule="evenodd"
          d="M4.73647 6.69961L0.770097 2.46517C0.401333 2.07148 0.411386 1.45624 0.792815 1.07481C1.19229 0.675337 1.84316 0.68597 2.22937 1.09828L6.83856 6.01899C7.08222 6.27912 7.16049 6.63598 7.07553 6.95821C7.03504 7.12415 6.95149 7.28186 6.82469 7.41363L2.22544 12.1934C1.83732 12.5968 1.1937 12.6029 0.797886 12.2071C0.412701 11.8219 0.40671 11.1993 0.784411 10.8068L4.73647 6.69961ZM5.42589 6.70424L1.1447 11.1535C0.955869 11.3497 0.958864 11.661 1.15144 11.8536C1.34933 12.0515 1.67111 12.0484 1.86515 11.8467L6.4644 7.06694C6.46588 7.06541 6.46735 7.06386 6.4688 7.06231C6.53076 6.99628 6.5714 6.91766 6.59079 6.83512C6.63535 6.6728 6.59666 6.49214 6.47364 6.36081L1.86445 1.44009C1.6714 1.234 1.34605 1.22868 1.14637 1.42836C0.955705 1.61903 0.950679 1.92657 1.13501 2.12336L5.42589 6.70424Z"
          fill="currentColor"/>
</svg>
