<svg width="102" height="72" viewBox="0 0 102 72" fill="none" xmlns="http://www.w3.org/2000/svg">
<g opacity="0.2">
<path d="M48.783 19.5796L50.7561 17.6064L52.7293 19.5796L50.7561 21.5527L48.783 19.5796Z" fill="#5AA1F8"/>
<path d="M45.4945 22.8681L47.4676 20.895L49.4407 22.8681L47.4676 24.8412L45.4945 22.8681Z" fill="#5AA1F8"/>
<path d="M42.2059 26.1566L44.1791 24.1835L46.1522 26.1566L44.1791 28.1298L42.2059 26.1566Z" fill="#5AA1F8"/>
<path d="M38.9174 29.4452L40.8905 27.4721L42.8637 29.4452L40.8905 31.4183L38.9174 29.4452Z" fill="#5AA1F8"/>
<path d="M35.6289 32.7337L37.602 30.7606L39.5751 32.7337L37.602 34.7068L35.6289 32.7337Z" fill="#5AA1F8"/>
<path d="M32.3403 36.0223L34.3135 34.0491L36.2866 36.0223L34.3135 37.9954L32.3403 36.0223Z" fill="#5AA1F8"/>
<path d="M52.0714 22.8679L54.0445 20.8948L56.0176 22.8679L54.0445 24.841L52.0714 22.8679Z" fill="#5AA1F8"/>
<path d="M48.7828 26.1564L50.7559 24.1833L52.7291 26.1564L50.7559 28.1296L48.7828 26.1564Z" fill="#5AA1F8"/>
<path d="M45.4943 29.445L47.4674 27.4719L49.4405 29.445L47.4674 31.4181L45.4943 29.445Z" fill="#5AA1F8"/>
<path d="M42.2057 32.7335L44.1789 30.7604L46.152 32.7335L44.1789 34.7066L42.2057 32.7335Z" fill="#5AA1F8"/>
<path d="M38.9172 36.0221L40.8903 34.0489L42.8635 36.0221L40.8903 37.9952L38.9172 36.0221Z" fill="#5AA1F8"/>
<path d="M35.6287 39.3106L37.6018 37.3375L39.5749 39.3106L37.6018 41.2837L35.6287 39.3106Z" fill="#5AA1F8"/>
<path d="M55.3604 26.1569L57.3335 24.1838L59.3066 26.1569L57.3335 28.1301L55.3604 26.1569Z" fill="#5AA1F8"/>
<path d="M52.0719 29.4455L54.045 27.4724L56.0181 29.4455L54.045 31.4186L52.0719 29.4455Z" fill="#5AA1F8"/>
<path d="M48.7833 32.734L50.7564 30.7609L52.7296 32.734L50.7564 34.7071L48.7833 32.734Z" fill="#5AA1F8"/>
<path d="M45.4948 36.0226L47.4679 34.0494L49.441 36.0226L47.4679 37.9957L45.4948 36.0226Z" fill="#5AA1F8"/>
<path d="M42.2062 39.3111L44.1794 37.338L46.1525 39.3111L44.1794 41.2842L42.2062 39.3111Z" fill="#5AA1F8"/>
<path d="M38.9177 42.5996L40.8908 40.6265L42.8639 42.5996L40.8908 44.5728L38.9177 42.5996Z" fill="#5AA1F8"/>
<path d="M58.6487 29.4453L60.6219 27.4722L62.595 29.4453L60.6219 31.4184L58.6487 29.4453Z" fill="#5AA1F8"/>
<path d="M55.3602 32.7338L57.3333 30.7607L59.3064 32.7338L57.3333 34.7069L55.3602 32.7338Z" fill="#5AA1F8"/>
<path d="M52.0717 36.0224L54.0448 34.0492L56.0179 36.0224L54.0448 37.9955L52.0717 36.0224Z" fill="#5AA1F8"/>
<path d="M48.7831 39.3109L50.7562 37.3378L52.7294 39.3109L50.7562 41.284L48.7831 39.3109Z" fill="#5AA1F8"/>
<path d="M45.4946 42.5994L47.4677 40.6263L49.4408 42.5994L47.4677 44.5726L45.4946 42.5994Z" fill="#5AA1F8"/>
<path d="M42.206 45.888L44.1792 43.9148L46.1523 45.888L44.1792 47.8611L42.206 45.888Z" fill="#5AA1F8"/>
<path d="M61.9371 32.7336L63.9102 30.7605L65.8833 32.7336L63.9102 34.7067L61.9371 32.7336Z" fill="#5AA1F8"/>
<path d="M58.6485 36.0222L60.6217 34.049L62.5948 36.0222L60.6217 37.9953L58.6485 36.0222Z" fill="#5AA1F8"/>
<path d="M55.36 39.3107L57.3331 37.3376L59.3062 39.3107L57.3331 41.2838L55.36 39.3107Z" fill="#5AA1F8"/>
<path d="M52.0715 42.5992L54.0446 40.6261L56.0177 42.5992L54.0446 44.5724L52.0715 42.5992Z" fill="#5AA1F8"/>
<path d="M48.7829 45.8878L50.756 43.9146L52.7292 45.8878L50.756 47.8609L48.7829 45.8878Z" fill="#5AA1F8"/>
<path d="M45.4944 49.1763L47.4675 47.2032L49.4406 49.1763L47.4675 51.1494L45.4944 49.1763Z" fill="#5AA1F8"/>
<path d="M65.2254 36.022L67.1985 34.0488L69.1717 36.022L67.1985 37.9951L65.2254 36.022Z" fill="#5AA1F8"/>
<path d="M61.9369 39.3105L63.91 37.3374L65.8831 39.3105L63.91 41.2836L61.9369 39.3105Z" fill="#5AA1F8"/>
<path d="M58.6483 42.599L60.6215 40.6259L62.5946 42.599L60.6215 44.5722L58.6483 42.599Z" fill="#5AA1F8"/>
<path d="M55.3598 45.8876L57.3329 43.9145L59.306 45.8876L57.3329 47.8607L55.3598 45.8876Z" fill="#5AA1F8"/>
<path d="M52.0713 49.1761L54.0444 47.203L56.0175 49.1761L54.0444 51.1492L52.0713 49.1761Z" fill="#5AA1F8"/>
<path d="M48.7827 52.4646L50.7558 50.4915L52.729 52.4646L50.7558 54.4378L48.7827 52.4646Z" fill="#5AA1F8"/>
</g>
<path opacity="0.3" d="M61.2246 46.8442L72.3803 35.6884L62.2666 25.5747L62.6255 25.2158C64.1876 23.6537 66.7203 23.6537 68.2824 25.2158L76.1717 33.1052C77.7338 34.6673 77.7338 37.2 76.1717 38.7621L67.4855 47.4483C65.9234 49.0104 63.3908 49.0104 61.8287 47.4483L61.2246 46.8442Z" fill="#57A2F9"/>
<g filter="url(#filter0_d_966_132)">
<path fill-rule="evenodd" clip-rule="evenodd" d="M65.1994 25.3207C65.395 25.1251 65.7121 25.1251 65.9077 25.3207L76.0784 35.4914C76.274 35.687 76.274 36.0041 76.0784 36.1997L65.4539 46.8242C65.2583 47.0198 64.9412 47.0198 64.7456 46.8242C64.55 46.6286 64.55 46.3115 64.7456 46.1159L75.016 35.8456L65.1994 26.029C65.0038 25.8334 65.0038 25.5163 65.1994 25.3207Z" fill="#57A3F9"/>
</g>
<path opacity="0.3" d="M40.7754 25.1558L29.6197 36.3116L39.7334 46.4253L39.3745 46.7842C37.8124 48.3463 35.2797 48.3463 33.7176 46.7842L25.8283 38.8948C24.2662 37.3327 24.2662 34.8 25.8283 33.2379L34.5145 24.5517C36.0766 22.9896 38.6092 22.9896 40.1713 24.5517L40.7754 25.1558Z" fill="#57A2F9"/>
<g filter="url(#filter1_d_966_132)">
<path fill-rule="evenodd" clip-rule="evenodd" d="M36.8011 46.6798C36.6055 46.8754 36.2884 46.8754 36.0928 46.6798L25.9221 36.5091C25.7265 36.3135 25.7265 35.9964 25.9221 35.8008L36.5466 25.1763C36.7422 24.9807 37.0593 24.9807 37.2549 25.1763C37.4505 25.3719 37.4505 25.689 37.2549 25.8846L26.9845 36.1549L36.8011 45.9715C36.9967 46.1671 36.9967 46.4842 36.8011 46.6798Z" fill="#57A3F9"/>
</g>
<g filter="url(#filter2_d_966_132)">
<path d="M42.0178 34.4244C42.6236 33.9931 43.5066 34.0816 43.99 34.6221L49.7141 41.0219C50.1975 41.5624 50.0983 42.3503 49.4925 42.7816C48.8867 43.2129 48.0038 43.1244 47.5203 42.5839L41.7963 36.1841C41.3128 35.6436 41.412 34.8557 42.0178 34.4244Z" fill="white"/>
<path d="M59.6746 29.4737C59.0688 29.0423 58.1858 29.1308 57.7024 29.6713L47.5504 41.0219C47.067 41.5624 47.1662 42.3502 47.772 42.7815C48.3778 43.2129 49.2608 43.1244 49.7442 42.5839L59.8962 31.2334C60.3796 30.6928 60.2804 29.905 59.6746 29.4737Z" fill="white"/>
</g>
<g opacity="0.2">
<path d="M48.783 19.5796L50.7561 17.6064L52.7293 19.5796L50.7561 21.5527L48.783 19.5796Z" fill="#5AA1F8"/>
<path d="M45.4945 22.8681L47.4676 20.895L49.4407 22.8681L47.4676 24.8412L45.4945 22.8681Z" fill="#5AA1F8"/>
<path d="M42.2059 26.1566L44.1791 24.1835L46.1522 26.1566L44.1791 28.1298L42.2059 26.1566Z" fill="#5AA1F8"/>
<path d="M38.9174 29.4452L40.8905 27.4721L42.8637 29.4452L40.8905 31.4183L38.9174 29.4452Z" fill="#5AA1F8"/>
<path d="M35.6289 32.7337L37.602 30.7606L39.5751 32.7337L37.602 34.7068L35.6289 32.7337Z" fill="#5AA1F8"/>
<path d="M32.3403 36.0223L34.3135 34.0491L36.2866 36.0223L34.3135 37.9954L32.3403 36.0223Z" fill="#5AA1F8"/>
<path d="M52.0714 22.8679L54.0445 20.8948L56.0176 22.8679L54.0445 24.841L52.0714 22.8679Z" fill="#5AA1F8"/>
<path d="M48.7828 26.1564L50.7559 24.1833L52.7291 26.1564L50.7559 28.1296L48.7828 26.1564Z" fill="#5AA1F8"/>
<path d="M45.4943 29.445L47.4674 27.4719L49.4405 29.445L47.4674 31.4181L45.4943 29.445Z" fill="#5AA1F8"/>
<path d="M42.2057 32.7335L44.1789 30.7604L46.152 32.7335L44.1789 34.7066L42.2057 32.7335Z" fill="#5AA1F8"/>
<path d="M38.9172 36.0221L40.8903 34.0489L42.8635 36.0221L40.8903 37.9952L38.9172 36.0221Z" fill="#5AA1F8"/>
<path d="M35.6287 39.3106L37.6018 37.3375L39.5749 39.3106L37.6018 41.2837L35.6287 39.3106Z" fill="#5AA1F8"/>
<path d="M55.3604 26.1569L57.3335 24.1838L59.3066 26.1569L57.3335 28.1301L55.3604 26.1569Z" fill="#5AA1F8"/>
<path d="M52.0719 29.4455L54.045 27.4724L56.0181 29.4455L54.045 31.4186L52.0719 29.4455Z" fill="#5AA1F8"/>
<path d="M48.7833 32.734L50.7564 30.7609L52.7296 32.734L50.7564 34.7071L48.7833 32.734Z" fill="#5AA1F8"/>
<path d="M45.4948 36.0226L47.4679 34.0494L49.441 36.0226L47.4679 37.9957L45.4948 36.0226Z" fill="#5AA1F8"/>
<path d="M42.2062 39.3111L44.1794 37.338L46.1525 39.3111L44.1794 41.2842L42.2062 39.3111Z" fill="#5AA1F8"/>
<path d="M38.9177 42.5996L40.8908 40.6265L42.8639 42.5996L40.8908 44.5728L38.9177 42.5996Z" fill="#5AA1F8"/>
<path d="M58.6487 29.4453L60.6219 27.4722L62.595 29.4453L60.6219 31.4184L58.6487 29.4453Z" fill="#5AA1F8"/>
<path d="M55.3602 32.7338L57.3333 30.7607L59.3064 32.7338L57.3333 34.7069L55.3602 32.7338Z" fill="#5AA1F8"/>
<path d="M52.0717 36.0224L54.0448 34.0492L56.0179 36.0224L54.0448 37.9955L52.0717 36.0224Z" fill="#5AA1F8"/>
<path d="M48.7831 39.3109L50.7562 37.3378L52.7294 39.3109L50.7562 41.284L48.7831 39.3109Z" fill="#5AA1F8"/>
<path d="M45.4946 42.5994L47.4677 40.6263L49.4408 42.5994L47.4677 44.5726L45.4946 42.5994Z" fill="#5AA1F8"/>
<path d="M42.206 45.888L44.1792 43.9148L46.1523 45.888L44.1792 47.8611L42.206 45.888Z" fill="#5AA1F8"/>
<path d="M61.9371 32.7336L63.9102 30.7605L65.8833 32.7336L63.9102 34.7067L61.9371 32.7336Z" fill="#5AA1F8"/>
<path d="M58.6485 36.0222L60.6217 34.049L62.5948 36.0222L60.6217 37.9953L58.6485 36.0222Z" fill="#5AA1F8"/>
<path d="M55.36 39.3107L57.3331 37.3376L59.3062 39.3107L57.3331 41.2838L55.36 39.3107Z" fill="#5AA1F8"/>
<path d="M52.0715 42.5992L54.0446 40.6261L56.0177 42.5992L54.0446 44.5724L52.0715 42.5992Z" fill="#5AA1F8"/>
<path d="M48.7829 45.8878L50.756 43.9146L52.7292 45.8878L50.756 47.8609L48.7829 45.8878Z" fill="#5AA1F8"/>
<path d="M45.4944 49.1763L47.4675 47.2032L49.4406 49.1763L47.4675 51.1494L45.4944 49.1763Z" fill="#5AA1F8"/>
<path d="M65.2254 36.022L67.1985 34.0488L69.1717 36.022L67.1985 37.9951L65.2254 36.022Z" fill="#5AA1F8"/>
<path d="M61.9369 39.3105L63.91 37.3374L65.8831 39.3105L63.91 41.2836L61.9369 39.3105Z" fill="#5AA1F8"/>
<path d="M58.6483 42.599L60.6215 40.6259L62.5946 42.599L60.6215 44.5722L58.6483 42.599Z" fill="#5AA1F8"/>
<path d="M55.3598 45.8876L57.3329 43.9145L59.306 45.8876L57.3329 47.8607L55.3598 45.8876Z" fill="#5AA1F8"/>
<path d="M52.0713 49.1761L54.0444 47.203L56.0175 49.1761L54.0444 51.1492L52.0713 49.1761Z" fill="#5AA1F8"/>
<path d="M48.7827 52.4646L50.7558 50.4915L52.729 52.4646L50.7558 54.4378L48.7827 52.4646Z" fill="#5AA1F8"/>
</g>
<path opacity="0.3" d="M61.2246 46.8442L72.3803 35.6884L62.2666 25.5747L62.6255 25.2158C64.1876 23.6537 66.7203 23.6537 68.2824 25.2158L76.1717 33.1052C77.7338 34.6673 77.7338 37.2 76.1717 38.7621L67.4855 47.4483C65.9234 49.0104 63.3908 49.0104 61.8287 47.4483L61.2246 46.8442Z" fill="#57A2F9"/>
<g filter="url(#filter3_d_966_132)">
<path fill-rule="evenodd" clip-rule="evenodd" d="M65.1994 25.3207C65.395 25.1251 65.7121 25.1251 65.9077 25.3207L76.0784 35.4914C76.274 35.687 76.274 36.0041 76.0784 36.1997L65.4539 46.8242C65.2583 47.0198 64.9412 47.0198 64.7456 46.8242C64.55 46.6286 64.55 46.3115 64.7456 46.1159L75.016 35.8456L65.1994 26.029C65.0038 25.8334 65.0038 25.5163 65.1994 25.3207Z" fill="#57A3F9"/>
</g>
<path opacity="0.3" d="M40.7754 25.1558L29.6197 36.3116L39.7334 46.4253L39.3745 46.7842C37.8124 48.3463 35.2797 48.3463 33.7176 46.7842L25.8283 38.8948C24.2662 37.3327 24.2662 34.8 25.8283 33.2379L34.5145 24.5517C36.0766 22.9896 38.6092 22.9896 40.1713 24.5517L40.7754 25.1558Z" fill="#57A2F9"/>
<g filter="url(#filter4_d_966_132)">
<path fill-rule="evenodd" clip-rule="evenodd" d="M36.8011 46.6798C36.6055 46.8754 36.2884 46.8754 36.0928 46.6798L25.9221 36.5091C25.7265 36.3135 25.7265 35.9964 25.9221 35.8008L36.5466 25.1763C36.7422 24.9807 37.0593 24.9807 37.2549 25.1763C37.4505 25.3719 37.4505 25.689 37.2549 25.8846L26.9845 36.1549L36.8011 45.9715C36.9967 46.1671 36.9967 46.4842 36.8011 46.6798Z" fill="#57A3F9"/>
</g>
<g filter="url(#filter5_d_966_132)">
<path d="M42.0178 34.4244C42.6236 33.9931 43.5066 34.0816 43.99 34.6221L49.7141 41.0219C50.1975 41.5624 50.0983 42.3503 49.4925 42.7816C48.8867 43.2129 48.0038 43.1244 47.5203 42.5839L41.7963 36.1841C41.3128 35.6436 41.412 34.8557 42.0178 34.4244Z" fill="white"/>
<path d="M59.6746 29.4737C59.0688 29.0423 58.1858 29.1308 57.7024 29.6713L47.5504 41.0219C47.067 41.5624 47.1662 42.3502 47.772 42.7815C48.3778 43.2129 49.2608 43.1244 49.7442 42.5839L59.8962 31.2334C60.3796 30.6928 60.2804 29.905 59.6746 29.4737Z" fill="white"/>
</g>
<defs>
<filter id="filter0_d_966_132" x="39.5991" y="0.173828" width="61.626" height="71.7969" filterUnits="userSpaceOnUse" color-interpolation-filters="sRGB">
<feFlood flood-opacity="0" result="BackgroundImageFix"/>
<feColorMatrix in="SourceAlpha" type="matrix" values="0 0 0 0 0 0 0 0 0 0 0 0 0 0 0 0 0 0 127 0" result="hardAlpha"/>
<feOffset/>
<feGaussianBlur stdDeviation="12.5"/>
<feComposite in2="hardAlpha" operator="out"/>
<feColorMatrix type="matrix" values="0 0 0 0 0.341176 0 0 0 0 0.639216 0 0 0 0 0.976471 0 0 0 1 0"/>
<feBlend mode="normal" in2="BackgroundImageFix" result="effect1_dropShadow_966_132"/>
<feBlend mode="normal" in="SourceGraphic" in2="effect1_dropShadow_966_132" result="shape"/>
</filter>
<filter id="filter1_d_966_132" x="0.775391" y="0.0297852" width="61.626" height="71.7969" filterUnits="userSpaceOnUse" color-interpolation-filters="sRGB">
<feFlood flood-opacity="0" result="BackgroundImageFix"/>
<feColorMatrix in="SourceAlpha" type="matrix" values="0 0 0 0 0 0 0 0 0 0 0 0 0 0 0 0 0 0 127 0" result="hardAlpha"/>
<feOffset/>
<feGaussianBlur stdDeviation="12.5"/>
<feComposite in2="hardAlpha" operator="out"/>
<feColorMatrix type="matrix" values="0 0 0 0 0.341176 0 0 0 0 0.639216 0 0 0 0 0.976471 0 0 0 1 0"/>
<feBlend mode="normal" in2="BackgroundImageFix" result="effect1_dropShadow_966_132"/>
<feBlend mode="normal" in="SourceGraphic" in2="effect1_dropShadow_966_132" result="shape"/>
</filter>
<filter id="filter2_d_966_132" x="29.2897" y="17.0002" width="43.1129" height="38.255" filterUnits="userSpaceOnUse" color-interpolation-filters="sRGB">
<feFlood flood-opacity="0" result="BackgroundImageFix"/>
<feColorMatrix in="SourceAlpha" type="matrix" values="0 0 0 0 0 0 0 0 0 0 0 0 0 0 0 0 0 0 127 0" result="hardAlpha"/>
<feOffset/>
<feGaussianBlur stdDeviation="6.1"/>
<feComposite in2="hardAlpha" operator="out"/>
<feColorMatrix type="matrix" values="0 0 0 0 1 0 0 0 0 1 0 0 0 0 1 0 0 0 1 0"/>
<feBlend mode="normal" in2="BackgroundImageFix" result="effect1_dropShadow_966_132"/>
<feBlend mode="normal" in="SourceGraphic" in2="effect1_dropShadow_966_132" result="shape"/>
</filter>
<filter id="filter3_d_966_132" x="39.5991" y="0.173828" width="61.626" height="71.7969" filterUnits="userSpaceOnUse" color-interpolation-filters="sRGB">
<feFlood flood-opacity="0" result="BackgroundImageFix"/>
<feColorMatrix in="SourceAlpha" type="matrix" values="0 0 0 0 0 0 0 0 0 0 0 0 0 0 0 0 0 0 127 0" result="hardAlpha"/>
<feOffset/>
<feGaussianBlur stdDeviation="12.5"/>
<feComposite in2="hardAlpha" operator="out"/>
<feColorMatrix type="matrix" values="0 0 0 0 0.341176 0 0 0 0 0.639216 0 0 0 0 0.976471 0 0 0 1 0"/>
<feBlend mode="normal" in2="BackgroundImageFix" result="effect1_dropShadow_966_132"/>
<feBlend mode="normal" in="SourceGraphic" in2="effect1_dropShadow_966_132" result="shape"/>
</filter>
<filter id="filter4_d_966_132" x="0.775391" y="0.0297852" width="61.626" height="71.7969" filterUnits="userSpaceOnUse" color-interpolation-filters="sRGB">
<feFlood flood-opacity="0" result="BackgroundImageFix"/>
<feColorMatrix in="SourceAlpha" type="matrix" values="0 0 0 0 0 0 0 0 0 0 0 0 0 0 0 0 0 0 127 0" result="hardAlpha"/>
<feOffset/>
<feGaussianBlur stdDeviation="12.5"/>
<feComposite in2="hardAlpha" operator="out"/>
<feColorMatrix type="matrix" values="0 0 0 0 0.341176 0 0 0 0 0.639216 0 0 0 0 0.976471 0 0 0 1 0"/>
<feBlend mode="normal" in2="BackgroundImageFix" result="effect1_dropShadow_966_132"/>
<feBlend mode="normal" in="SourceGraphic" in2="effect1_dropShadow_966_132" result="shape"/>
</filter>
<filter id="filter5_d_966_132" x="29.2897" y="17.0002" width="43.1129" height="38.255" filterUnits="userSpaceOnUse" color-interpolation-filters="sRGB">
<feFlood flood-opacity="0" result="BackgroundImageFix"/>
<feColorMatrix in="SourceAlpha" type="matrix" values="0 0 0 0 0 0 0 0 0 0 0 0 0 0 0 0 0 0 127 0" result="hardAlpha"/>
<feOffset/>
<feGaussianBlur stdDeviation="6.1"/>
<feComposite in2="hardAlpha" operator="out"/>
<feColorMatrix type="matrix" values="0 0 0 0 1 0 0 0 0 1 0 0 0 0 1 0 0 0 1 0"/>
<feBlend mode="normal" in2="BackgroundImageFix" result="effect1_dropShadow_966_132"/>
<feBlend mode="normal" in="SourceGraphic" in2="effect1_dropShadow_966_132" result="shape"/>
</filter>
</defs>
</svg>
