<svg width="24" height="24" viewBox="0 0 24 24" fill="none" xmlns="http://www.w3.org/2000/svg">
    <path d="M11.979 0C5.66728 0 0.490507 4.86 0 11.0364L6.44392 13.6956C6.98973 13.3236 7.64855 13.1052 8.35906 13.1052C8.42278 13.1052 8.48409 13.1088 8.54781 13.1112L11.4139 8.9688V8.91C11.4139 6.414 13.4457 4.386 15.9463 4.386C18.4457 4.386 20.4787 6.4164 20.4787 8.9124C20.4787 11.4084 18.4445 13.4376 15.9463 13.4376H15.8417L11.7578 16.3488C11.7578 16.4004 11.7614 16.4544 11.7614 16.5084C11.7614 18.3828 10.2442 19.9044 8.36508 19.9044C6.72765 19.9044 5.34389 18.7308 5.0289 17.1768L0.414767 15.27C1.84301 20.3064 6.47638 24 11.9802 24C18.6188 24 24 18.6276 24 12C24 5.3736 18.6176 0 11.979 0ZM6.0568 17.6004C6.31889 18.1428 6.77213 18.5988 7.37204 18.8496C8.67164 19.3896 10.1708 18.774 10.7106 17.4756C10.9751 16.8456 10.9751 16.1556 10.7154 15.5256C10.4569 14.8956 9.96403 14.4048 9.33647 14.1432C8.71132 13.8828 8.04408 13.8936 7.45499 14.1132L8.98061 14.7432C9.93879 15.1428 10.392 16.2432 9.99048 17.1984C9.59375 18.1548 8.49131 18.6084 7.53314 18.21L6.0568 17.6004ZM18.9687 8.9064C18.9687 7.2444 17.6126 5.892 15.9475 5.892C14.28 5.892 12.9275 7.2444 12.9275 8.9064C12.9275 10.572 14.28 11.922 15.9475 11.922C17.6138 11.922 18.9675 10.572 18.9675 8.9064H18.9687ZM15.9535 6.636C17.2038 6.636 18.2233 7.65 18.2233 8.9016C18.2233 10.1532 17.205 11.1672 15.9535 11.1672C14.6984 11.1672 13.6837 10.1532 13.6837 8.9016C13.6837 7.65 14.6996 6.636 15.9535 6.636Z"
          fill="white"/>
</svg>
