<svg width="81" height="74" viewBox="0 0 81 74" fill="none" xmlns="http://www.w3.org/2000/svg">
    <path d="M40.5212 6.07059e-06C32.051 -0.004672 23.7926 2.69449 16.9079 7.71772C10.0231 12.7409 4.85866 19.8354 2.14108 28.0029C-0.576502 36.1703 -0.710397 44.9997 1.75823 53.2487C4.22686 61.4977 9.17376 68.7511 15.9029 73.9883C19.2625 69.3188 24.0211 67.0424 27.8508 65.2213C29.6302 64.5114 31.2958 63.5356 32.7928 62.3262L32.8731 61.8826C27.4724 58.3805 24.044 51.4696 24.044 43.8C24.0555 32.5465 31.4398 23.3942 40.5212 23.3942C49.6025 23.3942 56.9869 32.5465 56.9869 43.8C56.9869 51.3879 53.6157 58.2754 48.2954 61.8009L48.4215 62.5013C49.8745 63.6082 51.4577 64.5258 53.1342 65.233C56.9639 67.0658 61.7225 69.3422 65.0821 74C71.812 68.7672 76.7616 61.5183 79.2346 53.2728C81.7075 45.0273 81.5796 36.2 78.8687 28.0324C76.1579 19.8648 71.0004 12.7677 64.1218 7.73936C57.2431 2.71101 48.9893 0.00433941 40.5212 6.07059e-06Z"
          fill="currentColor"/>
</svg>
